<?xml version='1.0' encoding='UTF-8'?>
<svg viewBox="0 0 32 32" xmlns="http://www.w3.org/2000/svg" xmlns:xlink="http://www.w3.org/1999/xlink">
  <g id="Layer_1" transform="translate(0, 0)" style="enable-background:new 0 0 32 32">
    <g id="Person">
      <path d="M10, 9.9C9.9, 10.4 10.2, 10.8 10.4, 11.3C10.6, 11.8 10.3, 13 11.3, 12.9C11.3, 12.9 11.3, 13 11.3, 13.1C11.9, 15.4 13.3, 18 16, 18C18.7, 18 20.2, 15.4 20.7, 13.1L20.7, 13C21.7, 13.1 21.3, 11.9 21.6, 11.4C21.8, 10.9 22, 10.5 21.9, 10C21.8, 9.6 21.5, 9.6 21.4, 9.7C23.2, 4.8 20.3, 5 20.3, 5C20.3, 5 20, 2 14.8, 2C10, 2 9.4, 6 10.5, 9.6C10.4, 9.6 10.1, 9.7 10, 9.9zM20, 18C19.2, 19.5 17.9, 22 16, 22C14.1, 22 12.8, 19.5 12, 18C9.7, 21.5 4, 19 4, 26.5L4, 30L28, 30L28, 26.5C28, 19.1 22.3, 21.4 20, 18z" fill="#D11C1C" class="Red" />
    </g>
  </g>
  <g id="Layer_1" transform="translate(16, 16)" style="enable-background:new 0 0 32 32">
    <g transform="matrix(0.5, 0, 0, 0.5, 0, 0)">
      <g id="Skull">
        <path d="M21.7, 24C21.9, 24.6 22, 25.3 22, 26C22, 29.3 19.3, 32 16, 32C12.7, 32 10, 29.3 10, 26C10, 25.3 10.1, 24.6 10.3, 24C11.1, 26.3 13.3, 28 16, 28C18.7, 28 20.8, 26.3 21.7, 24zM27.2, 17.6C27.7, 18.3 28, 19.1 28, 20C28, 22.2 26.2, 24 24, 24C22.9, 24 22, 23.6 21.3, 22.9C20.3, 24.7 18.3, 26 16, 26C13.7, 26 11.8, 24.7 10.7, 22.9C10, 23.6 9.1, 24 8, 24C5.8, 24 4, 22.2 4, 20C4, 19.1 4.3, 18.3 4.8, 17.6C3.1, 15.8 2, 13.5 2, 11C2, 4.9 8.3, 0 16, 0C23.7, 0 30, 4.9 30, 11C30, 13.5 28.9, 15.8 27.2, 17.6zM13.3, 12.7C12.2, 11.6 10.3, 11.8 9.1, 13C7.9, 14.2 7.7, 16.2 8.8, 17.2C9.9, 18.2 11.8, 18.1 13, 16.9C14.2, 15.7 14.4, 13.8 13.3, 12.7zM18, 21C18, 20.9 18, 20.7 17.9, 20.6L16, 16L14.1, 20.6C14.1, 20.7 14, 20.8 14, 21C14, 21.6 14.4, 22 15, 22C15.6, 22 16, 21.6 16, 21C16, 21.6 16.4, 22 17, 22C17.6, 22 18, 21.6 18, 21zM23, 13C21.7, 11.7 19.8, 11.6 18.8, 12.7C17.8, 13.8 17.9, 15.7 19.1, 16.9C20.4, 18.2 22.3, 18.3 23.3, 17.2C24.3, 16.1 24.2, 14.3 23, 13z" fill="#727272" class="Black" />
      </g>
    </g>
  </g>
  <g id="ToggleFieldCodes" transform="translate(0, 0)" style="enable-background:new 0 0 32 32">
    <g transform="matrix(0.5, 0, 0, 0.5, 0, 0)">
      <path d="M32, 31L32, 15C32, 14.4 31.5, 14 31, 14L9, 14C8.4, 14 8, 14.4 8, 15L8, 31C8, 31.5 8.4, 32 9, 32L31, 32C31.5, 32 32, 31.5 32, 31z" fill="#FFB115" class="Yellow" />
    </g>
  </g>
  <g id="ToggleFieldCodes" transform="translate(0, 0)" style="enable-background:new 0 0 32 32">
    <g transform="matrix(0.5, 0, 0, 0.5, 0, 0)">
      <g class="st0">
        <path d="M24, 17L24, 1C24, 0.4 23.5, 0 23, 0L1, 0C0.4, 0 0, 0.4 0, 1L0, 17C0, 17.5 0.4, 18 1, 18L23, 18C23.5, 18 24, 17.5 24, 17z" fill="#FFB115" class="Yellow" />
      </g>
    </g>
  </g>
  <g id="ToggleFieldCodes" transform="translate(0, 0)" style="enable-background:new 0 0 32 32">
    <g transform="matrix(0.5, 0, 0, 0.5, 0, 0)">
      <path d="M12.6, 21.4C12.8, 21.1 13.1, 20.8 13.4, 20.6C13.7, 20.4 14.1, 20.3 14.5, 20.2C14.9, 20.1 15.3, 20.1 15.7, 20.1C16.1, 20.1 16.4, 20.1 16.8, 20.2C17.2, 20.3 17.5, 20.4 17.8, 20.5C18.1, 20.7 18.4, 20.9 18.6, 21.2C18.8, 21.5 18.9, 21.9 18.9, 22.3L18.9, 26.3C18.9, 26.7 18.9, 27 19, 27.3C19, 27.6 19.1, 27.9 19.2, 28L17.1, 28C17.1, 27.9 17, 27.8 17, 27.6C17, 27.5 17, 27.3 17, 27.2C16.7, 27.6 16.3, 27.8 15.9, 27.9C15.5, 28 15, 28.1 14.6, 28.1C14.2, 28.1 13.9, 28.1 13.6, 28C13.3, 27.9 13, 27.8 12.8, 27.6C12.6, 27.4 12.4, 27.2 12.3, 26.9C12.2, 26.6 12.1, 26.3 12.1, 25.9C12.1, 25.5 12.2, 25.1 12.3, 24.8C12.4, 24.5 12.6, 24.3 12.9, 24.1C13.2, 23.9 13.4, 23.8 13.7, 23.7C14, 23.6 14.3, 23.5 14.6, 23.5C14.9, 23.5 15.2, 23.4 15.5, 23.4C15.8, 23.4 16.1, 23.3 16.3, 23.3C16.5, 23.2 16.7, 23.2 16.8, 23C16.9, 22.9 17, 22.7 17, 22.5C17, 22.3 17, 22.1 16.9, 22C16.8, 21.9 16.7, 21.8 16.6, 21.7C16.5, 21.6 16.3, 21.6 16.2, 21.6C16, 21.6 15.9, 21.6 15.7, 21.6C15.3, 21.6 15, 21.7 14.8, 21.9C14.6, 22.1 14.4, 22.4 14.4, 22.8L12.4, 22.8C12.3, 22.1 12.4, 21.7 12.6, 21.4zM16.6, 24.4C16.5, 24.4 16.3, 24.5 16.2, 24.5C16.1, 24.5 15.9, 24.6 15.7, 24.6C15.5, 24.6 15.4, 24.6 15.2, 24.7C15, 24.7 14.9, 24.8 14.7, 24.8C14.6, 24.9 14.4, 24.9 14.3, 25C14.2, 25.1 14.1, 25.2 14, 25.3C13.9, 25.4 13.9, 25.6 13.9, 25.8C13.9, 26 13.9, 26.2 14, 26.3C14.1, 26.4 14.2, 26.5 14.3, 26.6C14.4, 26.7 14.5, 26.7 14.7, 26.8C14.9, 26.8 15, 26.8 15.2, 26.8C15.6, 26.8 15.9, 26.7 16.1, 26.6C16.3, 26.5 16.5, 26.3 16.6, 26.1C16.7, 25.9 16.8, 25.7 16.8, 25.5C16.8, 25.3 16.8, 25.1 16.8, 25L16.8, 24.2C16.8, 24.3 16.7, 24.3 16.6, 24.4zM22.6, 18L22.6, 21.2L22.6, 21.2C22.8, 20.8 23.2, 20.5 23.6, 20.3C24, 20.1 24.5, 20 24.9, 20C25.3, 20 25.6, 20.1 26, 20.2C26.4, 20.4 26.7, 20.6 27, 20.9C27.3, 21.2 27.5, 21.7 27.7, 22.2C27.9, 22.7 28, 23.3 28, 24C28, 24.7 27.9, 25.3 27.7, 25.8C27.5, 26.3 27.3, 26.7 27, 27.1C26.7, 27.4 26.4, 27.7 26, 27.8C25.6, 28 25.3, 28 24.9, 28C24.4, 28 23.9, 27.9 23.4, 27.7C23, 27.5 22.6, 27.2 22.4, 26.8L22.4, 26.8L22.4, 27.8L20.5, 27.8L20.5, 18L22.6, 18zM25.9, 23.2C25.8, 22.9 25.7, 22.6 25.6, 22.4C25.5, 22.2 25.3, 22 25.1, 21.9C24.9, 21.8 24.6, 21.7 24.3, 21.7C24, 21.7 23.7, 21.8 23.5, 21.9C23.3, 22 23.1, 22.2 23, 22.4C22.9, 22.6 22.8, 22.9 22.7, 23.2C22.6, 23.5 22.6, 23.8 22.6, 24.1C22.6, 24.4 22.6, 24.7 22.7, 25C22.8, 25.3 22.9, 25.6 23, 25.8C23.1, 26 23.3, 26.2 23.5, 26.3C23.7, 26.4 24, 26.5 24.3, 26.5C24.6, 26.5 24.9, 26.4 25.1, 26.3C25.3, 26.2 25.5, 26 25.6, 25.8C25.7, 25.6 25.8, 25.3 25.9, 25C26, 24.7 26, 24.4 26, 24.1C26, 23.8 25.9, 23.5 25.9, 23.2zM19, 9.8C19, 9.8 18.9, 9.8 18.9, 9.8C18.8, 9.8 18.6, 9.9 18.5, 10C18.4, 10.1 18.3, 10.2 18.2, 10.4C18, 10.6 18, 10.8 18, 11.1L18, 11.8C18, 12.2 17.9, 12.5 17.8, 12.8C17.7, 13.1 17.5, 13.3 17.4, 13.5C17.2, 13.7 17, 13.8 16.8, 13.9C16.6, 14 16.4, 14 16.3, 14L14, 14L14, 12.2L15.2, 12.2C15.4, 12.2 15.5, 12.2 15.6, 12.1C15.7, 12 15.8, 11.9 15.8, 11.8C15.9, 11.7 15.9, 11.6 15.9, 11.4C15.9, 11.3 15.9, 11.1 15.9, 11L15.9, 10.9C15.9, 10.5 16, 10.3 16.1, 10C16.2, 9.8 16.3, 9.6 16.5, 9.5C16.7, 9.4 16.8, 9.3 17, 9.2C17.2, 9.1 17.3, 9 17.4, 9L17.4, 9C17.3, 9 17.2, 9 17, 8.9C16.8, 8.8 16.7, 8.7 16.5, 8.6C16.3, 8.5 16.3, 8.3 16.2, 8C16.1, 7.7 16, 7.4 16, 7L16, 7C16, 6.9 16, 6.7 16, 6.6C16, 6.5 16, 6.3 15.9, 6.2C15.8, 6.1 15.7, 6 15.6, 6C15.5, 5.9 15.4, 5.9 15.2, 5.9L14, 5.9L14, 4L16.3, 4C16.5, 4 16.6, 4 16.8, 4.1C17, 4.2 17.2, 4.3 17.4, 4.5C17.6, 4.7 17.7, 4.9 17.8, 5.2C17.9, 5.5 18, 5.8 18, 6.2L18, 6.8C18, 7.1 18, 7.3 18.1, 7.5C18.2, 7.7 18.3, 7.8 18.4, 8C18.5, 8.1 18.7, 8.2 18.8, 8.2C18.8, 8.2 18.9, 8.2 18.9, 8.2L18.9, 9.8zM5, 9.8C5, 9.8 5.1, 9.8 5.1, 9.8C5.2, 9.8 5.4, 9.9 5.5, 10C5.6, 10.1 5.7, 10.2 5.8, 10.4C6, 10.6 6, 10.8 6, 11.1L6, 11.8C6, 12.2 6.1, 12.5 6.2, 12.8C6.3, 13.1 6.5, 13.3 6.6, 13.5C6.8, 13.7 7, 13.8 7.2, 13.9C7.4, 14 7.6, 14 7.7, 14L10, 14L10, 12.2L8.8, 12.2C8.6, 12.2 8.5, 12.2 8.4, 12.1C8.3, 12 8.2, 11.9 8.2, 11.8C8.1, 11.6 8, 11.5 8, 11.4C8, 11.3 8, 11.1 8, 11L8, 10.9C8, 10.5 7.9, 10.3 7.8, 10C7.7, 9.8 7.6, 9.6 7.5, 9.4C7.4, 9.2 7.2, 9.2 7, 9.1C6.8, 9.1 6.7, 9 6.6, 9L6.6, 9C6.7, 9 6.8, 9 7, 8.9C7.2, 8.8 7.3, 8.7 7.5, 8.6C7.7, 8.5 7.7, 8.3 7.8, 8C7.9, 7.7 8, 7.4 8, 7L8, 7C8, 6.9 8, 6.7 8, 6.6C8, 6.5 8, 6.3 8.1, 6.2C8.2, 6.1 8.3, 6 8.4, 6C8.5, 5.9 8.6, 5.9 8.8, 5.9L10, 5.9L10, 4L7.7, 4C7.6, 4 7.4, 4 7.2, 4.1C7, 4.2 6.8, 4.4 6.6, 4.6C6.5, 4.7 6.3, 5 6.2, 5.2C6.1, 5.5 6, 5.8 6, 6.2L6, 6.8C6, 7.1 6, 7.3 5.9, 7.5C5.8, 7.7 5.7, 7.9 5.5, 8C5.4, 8.1 5.3, 8.2 5.1, 8.2C5.1, 8.2 5, 8.2 5, 8.2L5, 9.8z" fill="#727272" class="Black" />
    </g>
  </g>
</svg>