<?xml version='1.0' encoding='UTF-8'?>
<svg viewBox="-2 -2 32 32" xmlns="http://www.w3.org/2000/svg" xmlns:xlink="http://www.w3.org/1999/xlink">
  <g id="ShowAllFieldCodes" transform="translate(0, 0)" style="enable-background:new 0 0 32 32">
    <g transform="matrix(0.875, 0, 0, 0.875, 0, 0)">
      <path d="M28, 24L10, 24L10, 26L28, 26L28, 24zM28, 16L10, 16L10, 18L28, 18L28, 16zM16, 20L10, 20L10, 22L16, 22L16, 20zM31, 4L7, 4C6.5, 4 6, 4.5 6, 5L6, 31C6, 31.5 6.5, 32 7, 32L31, 32C31.5, 32 32, 31.5 32, 31L32, 5C32, 4.5 31.5, 4 31, 4zM30, 30L8, 30L8, 6L30, 6L30, 30z" fill="#727272" class="Black" />
    </g>
  </g>
  <g id="ShowAllFieldCodes" transform="translate(0, 0)" style="enable-background:new 0 0 32 32">
    <g transform="matrix(0.875, 0, 0, 0.875, 0, 0)">
      <path d="M28, 22L18, 22L18, 20L28, 20L28, 22zM24, 13L24, 1C24, 0.4 23.5, 0 23, 0L1, 0C0.4, 0 0, 0.4 0, 1L0, 13C0, 13.6 0.4, 14 1, 14L23, 14C23.5, 14 24, 13.6 24, 13z" fill="#FFB115" class="Yellow" />
    </g>
  </g>
  <g id="ShowAllFieldCodes" transform="translate(0, 0)" style="enable-background:new 0 0 32 32">
    <g transform="matrix(0.875, 0, 0, 0.875, 0, 0)">
      <path d="M19, 7.8C19, 7.8 18.9, 7.8 18.9, 7.8C18.8, 7.8 18.6, 7.9 18.5, 8C18.4, 8.1 18.3, 8.2 18.2, 8.4C18, 8.6 18, 8.8 18, 9.1L18, 9.8C18, 10.2 17.9, 10.5 17.8, 10.8C17.7, 11.1 17.5, 11.3 17.4, 11.5C17.2, 11.7 17, 11.8 16.8, 11.9C16.6, 12 16.4, 12 16.3, 12L14, 12L14, 10.2L15.2, 10.2C15.4, 10.2 15.5, 10.2 15.6, 10.1C15.7, 10 15.8, 9.9 15.8, 9.8C15.9, 9.6 16, 9.5 16, 9.4C16, 9.3 16, 9.1 16, 9L16, 8.8C16, 8.4 16.1, 8.2 16.2, 7.9C16.3, 7.7 16.4, 7.5 16.6, 7.4C16.8, 7.3 16.9, 7.2 17.1, 7.1C17.2, 7.1 17.3, 7 17.4, 7L17.4, 7C17.3, 7 17.2, 7 17, 6.9C16.8, 6.8 16.7, 6.7 16.5, 6.6C16.3, 6.5 16.3, 6.3 16.2, 6C16.1, 5.7 16, 5.4 16, 5L16, 5C16, 4.9 16, 4.7 16, 4.6C16, 4.5 16, 4.3 15.9, 4.2C15.8, 4.1 15.7, 4 15.6, 4C15.5, 3.9 15.4, 3.9 15.2, 3.9L14, 3.9L14, 2L16.3, 2C16.5, 2 16.6, 2 16.8, 2.1C17, 2.2 17.2, 2.3 17.4, 2.5C17.6, 2.7 17.7, 2.9 17.8, 3.2C17.9, 3.5 18, 3.8 18, 4.2L18, 4.8C18, 5.1 18, 5.3 18.1, 5.5C18.2, 5.7 18.3, 5.8 18.4, 6C18.5, 6.1 18.7, 6.2 18.8, 6.2C18.8, 6.2 18.9, 6.2 18.9, 6.2L18.9, 7.8zM5, 7.8C5, 7.8 5.1, 7.8 5.1, 7.8C5.2, 7.8 5.4, 7.9 5.5, 8C5.6, 8.1 5.7, 8.2 5.8, 8.4C6, 8.6 6, 8.8 6, 9.1L6, 9.8C6, 10.2 6.1, 10.5 6.2, 10.8C6.3, 11.1 6.5, 11.3 6.6, 11.5C6.8, 11.7 7, 11.8 7.2, 11.9C7.4, 12 7.6, 12 7.7, 12L10, 12L10, 10.2L8.8, 10.2C8.6, 10.2 8.5, 10.2 8.4, 10.1C8.3, 10 8.2, 9.9 8.1, 9.8C8.1, 9.6 8, 9.5 8, 9.4C8, 9.2 8, 9.1 8, 9L8, 8.8C8, 8.5 7.9, 8.2 7.8, 8C7.7, 7.8 7.6, 7.6 7.5, 7.4C7.4, 7.2 7.2, 7.2 7, 7.1C6.8, 7.1 6.7, 7 6.6, 7L6.6, 7C6.7, 7 6.8, 7 7, 6.9C7.2, 6.8 7.3, 6.7 7.5, 6.6C7.7, 6.5 7.7, 6.3 7.8, 6C7.9, 5.7 8, 5.4 8, 5L8, 5C8, 4.9 8, 4.7 8, 4.6C8, 4.5 8, 4.3 8.1, 4.2C8.2, 4.1 8.3, 4 8.4, 4C8.5, 3.9 8.6, 3.9 8.8, 3.9L10, 3.9L10, 2L7.7, 2C7.6, 2 7.4, 2 7.2, 2.1C7, 2.2 6.8, 2.4 6.6, 2.6C6.5, 2.7 6.3, 3 6.2, 3.2C6.1, 3.5 6, 3.8 6, 4.2L6, 4.8C6, 5.1 6, 5.3 5.9, 5.5C5.8, 5.7 5.7, 5.9 5.5, 6C5.4, 6.1 5.3, 6.2 5.1, 6.2C5.1, 6.2 5, 6.2 5, 6.2L5, 7.8z" fill="#727272" class="Black" />
    </g>
  </g>
  <g id="Layer_1" transform="translate(14, 14)" style="enable-background:new 0 0 32 32">
    <g transform="matrix(0.5, 0, 0, 0.5, 0, 0)">
      <path d="M31, 2L1, 2C0.4, 2 0, 2.4 0, 3L0, 29C0, 29.6 0.4, 30 1, 30L31, 30C31.6, 30 32, 29.6 32, 29L32, 3C32, 2.4 31.6, 2 31, 2zM30, 28L2, 28L2, 4L30, 4L30, 28z" fill="#727272" class="Black" />
    </g>
  </g>
  <g id="Layer_1" transform="translate(14, 14)" style="enable-background:new 0 0 32 32">
    <g transform="matrix(0.5, 0, 0, 0.5, 0, 0)">
      <path d="M22, 23C22, 23.6 21.6, 24 21, 24L18, 24L18, 26L21, 26C22.7, 26 24, 24.7 24, 23L24, 18C24, 17.4 24.4, 17 25, 17L26, 17L26, 15L25, 15C24.4, 15 24, 14.6 24, 14L24, 9C24, 7.3 22.7, 6 21, 6L18, 6L18, 8L21, 8C21.6, 8 22, 8.4 22, 9L22, 14C22, 14.8 22.3, 15.5 22.8, 16C22.3, 16.5 22, 17.2 22, 18L22, 23z" fill="#039C23" class="Green" />
    </g>
  </g>
  <g id="Layer_1" transform="translate(14, 14)" style="enable-background:new 0 0 32 32">
    <g transform="matrix(0.5, 0, 0, 0.5, 0, 0)">
      <path d="M10, 9C10, 8.4 10.4, 8 11, 8L14, 8L14, 6L11, 6C9.3, 6 8, 7.3 8, 9L8, 14C8, 14.6 7.6, 15 7, 15L6, 15L6, 17L7, 17C7.6, 17 8, 17.4 8, 18L8, 23C8, 24.7 9.3, 26 11, 26L14, 26L14, 24L11, 24C10.4, 24 10, 23.6 10, 23L10, 18C10, 17.2 9.7, 16.5 9.2, 16C9.7, 15.5 10, 14.8 10, 14L10, 9z" fill="#039C23" class="Green" />
    </g>
  </g>
</svg>